HIERARCHY
ROOT Hip
{
  OFFSET 0.000000 0.000000 0.000000
  CHANNELS 6 Xposition Yposition Zposition Zrotation Xrotation Yrotation
  JOINT RHip
  {
    OFFSET 0.000000 0.000000 0.000000
    CHANNELS 3 Xposition Yposition Zposition
    End Site
    {
      OFFSET 0.000000 0.100000 0.000000
    }
  }
  JOINT RKnee
  {
    OFFSET 0.000000 0.000000 0.000000
    CHANNELS 3 Xposition Yposition Zposition
    End Site
    {
      OFFSET 0.000000 0.100000 0.000000
    }
  }
  JOINT RFoot
  {
    OFFSET 0.000000 0.000000 0.000000
    CHANNELS 3 Xposition Yposition Zposition
    End Site
    {
      OFFSET 0.000000 0.100000 0.000000
    }
  }
  JOINT LHip
  {
    OFFSET 0.000000 0.000000 0.000000
    CHANNELS 3 Xposition Yposition Zposition
    End Site
    {
      OFFSET 0.000000 0.100000 0.000000
    }
  }
  JOINT LKnee
  {
    OFFSET 0.000000 0.000000 0.000000
    CHANNELS 3 Xposition Yposition Zposition
    End Site
    {
      OFFSET 0.000000 0.100000 0.000000
    }
  }
  JOINT LFoot
  {
    OFFSET 0.000000 0.000000 0.000000
    CHANNELS 3 Xposition Yposition Zposition
    End Site
    {
      OFFSET 0.000000 0.100000 0.000000
    }
  }
  JOINT Spine
  {
    OFFSET 0.000000 0.000000 0.000000
    CHANNELS 3 Xposition Yposition Zposition
    End Site
    {
      OFFSET 0.000000 0.100000 0.000000
    }
  }
  JOINT Thorax
  {
    OFFSET 0.000000 0.000000 0.000000
    CHANNELS 3 Xposition Yposition Zposition
    End Site
    {
      OFFSET 0.000000 0.100000 0.000000
    }
  }
  JOINT Nose
  {
    OFFSET 0.000000 0.000000 0.000000
    CHANNELS 3 Xposition Yposition Zposition
    End Site
    {
      OFFSET 0.000000 0.100000 0.000000
    }
  }
  JOINT Head
  {
    OFFSET 0.000000 0.000000 0.000000
    CHANNELS 3 Xposition Yposition Zposition
    End Site
    {
      OFFSET 0.000000 0.100000 0.000000
    }
  }
  JOINT LShoulder
  {
    OFFSET 0.000000 0.000000 0.000000
    CHANNELS 3 Xposition Yposition Zposition
    End Site
    {
      OFFSET 0.000000 0.100000 0.000000
    }
  }
  JOINT LElbow
  {
    OFFSET 0.000000 0.000000 0.000000
    CHANNELS 3 Xposition Yposition Zposition
    End Site
    {
      OFFSET 0.000000 0.100000 0.000000
    }
  }
  JOINT LWrist
  {
    OFFSET 0.000000 0.000000 0.000000
    CHANNELS 3 Xposition Yposition Zposition
    End Site
    {
      OFFSET 0.000000 0.100000 0.000000
    }
  }
  JOINT RShoulder
  {
    OFFSET 0.000000 0.000000 0.000000
    CHANNELS 3 Xposition Yposition Zposition
    End Site
    {
      OFFSET 0.000000 0.100000 0.000000
    }
  }
  JOINT RElbow
  {
    OFFSET 0.000000 0.000000 0.000000
    CHANNELS 3 Xposition Yposition Zposition
    End Site
    {
      OFFSET 0.000000 0.100000 0.000000
    }
  }
  JOINT RWrist
  {
    OFFSET 0.000000 0.000000 0.000000
    CHANNELS 3 Xposition Yposition Zposition
    End Site
    {
      OFFSET 0.000000 0.100000 0.000000
    }
  }
}
MOTION
Frames: 21
Frame Time: 0.033333
-0.090544 0.915878 -0.000008 0.000000 0.000000 0.000000 0.137366 0.026731 0.034481 0.282717 -0.262167 -0.426877 0.226650 -0.669474 -0.544591 -0.137376 -0.026670 -0.034453 -0.113583 -0.356250 -0.573113 -0.050771 -0.772002 -0.628793 -0.009809 0.207383 -0.124567 -0.016420 0.474144 -0.285527 0.104102 0.445859 -0.406889 0.026595 0.566805 -0.399263 -0.149605 0.417706 -0.361668 0.017164 0.407863 -0.607044 0.124643 0.575074 -0.492043 0.131701 0.486683 -0.201330 0.372618 0.508089 -0.252645 0.246038 0.582454 -0.497049
-0.091563 0.915007 -0.000006 0.000000 0.000000 0.000000 0.136956 0.027046 0.035153 0.286593 -0.258625 -0.424174 0.228650 -0.668027 -0.534796 -0.136966 -0.026986 -0.035129 -0.113783 -0.354923 -0.575832 -0.053127 -0.773606 -0.626301 -0.009355 0.207386 -0.122748 -0.014485 0.475178 -0.282424 0.108842 0.446585 -0.402616 0.032764 0.568344 -0.397392 -0.148119 0.418411 -0.360110 0.017695 0.417118 -0.607888 0.115802 0.592877 -0.484602 0.132478 0.489019 -0.196346 0.371051 0.519603 -0.246408 0.238068 0.597934 -0.487161
-0.092641 0.913690 -0.000003 0.000000 0.000000 0.000000 0.136457 0.027204 0.035903 0.290183 -0.254742 -0.422224 0.230411 -0.666436 -0.529511 -0.136466 -0.027144 -0.035884 -0.113962 -0.352372 -0.577916 -0.055389 -0.774747 -0.625174 -0.008558 0.206708 -0.121969 -0.012027 0.474638 -0.281585 0.113794 0.444960 -0.400225 0.038616 0.567397 -0.397342 -0.146116 0.417488 -0.360887 0.019777 0.422807 -0.611521 0.108221 0.606144 -0.483549 0.134106 0.489338 -0.193677 0.369973 0.528196 -0.245190 0.231056 0.609141 -0.481973
-0.093725 0.911690 0.000000 0.000000 0.000000 0.000000 0.135900 0.027265 0.036622 0.293639 -0.250997 -0.421171 0.232198 -0.664637 -0.526820 -0.135909 -0.027205 -0.036609 -0.113798 -0.349335 -0.579769 -0.057308 -0.775211 -0.624660 -0.007395 0.205154 -0.122437 -0.009052 0.472272 -0.283406 0.119022 0.440939 -0.400456 0.044257 0.563911 -0.399918 -0.143873 0.414867 -0.364117 0.022640 0.424404 -0.617563 0.101764 0.613959 -0.488124 0.136617 0.487543 -0.193895 0.368979 0.533183 -0.248751 0.224679 0.615869 -0.481485
-0.094804 0.908514 0.000004 0.000000 0.000000 0.000000 0.135402 0.027268 0.037192 0.296826 -0.247783 -0.420925 0.234274 -0.662453 -0.526485 -0.135411 -0.027210 -0.037186 -0.113278 -0.346413 -0.581890 -0.058617 -0.775038 -0.625995 -0.005936 0.203081 -0.123563 -0.005597 0.468564 -0.286855 0.124213 0.435102 -0.402577 0.049829 0.558558 -0.404520 -0.141540 0.411175 -0.368329 0.025369 0.422456 -0.623555 0.096823 0.616556 -0.494827 0.140126 0.484275 -0.196157 0.368578 0.534720 -0.254884 0.219445 0.618732 -0.484938
-0.096074 0.903838 0.000006 0.000000 0.000000 0.000000 0.135008 0.027271 0.037678 0.299594 -0.244963 -0.421478 0.236941 -0.659874 -0.530513 -0.135016 -0.027213 -0.037677 -0.112284 -0.343719 -0.584330 -0.059030 -0.774630 -0.631828 -0.004353 0.200830 -0.124742 -0.001899 0.464000 -0.290846 0.129028 0.428001 -0.405835 0.055007 0.551853 -0.410469 -0.139318 0.406860 -0.372230 0.026882 0.417543 -0.627958 0.094050 0.613327 -0.503925 0.144472 0.479985 -0.199433 0.369154 0.533005 -0.262126 0.215887 0.617344 -0.492331
-0.097646 0.898262 0.000008 0.000000 0.000000 0.000000 0.134716 0.027415 0.038151 0.301908 -0.241842 -0.422838 0.240270 -0.656958 -0.540749 -0.134725 -0.027358 -0.038153 -0.110741 -0.341037 -0.586612 -0.058573 -0.774360 -0.643485 -0.002796 0.198731 -0.125436 0.001705 0.459230 -0.294116 0.133448 0.420352 -0.408843 0.059546 0.544509 -0.416319 -0.137538 0.402125 -0.374460 0.025874 0.409875 -0.629956 0.094391 0.603688 -0.517582 0.149254 0.475096 -0.202576 0.370698 0.528699 -0.269982 0.214708 0.611356 -0.503477
-0.099438 0.892413 0.000008 0.000000 0.000000 0.000000 0.134543 0.027875 0.038503 0.303548 -0.238228 -0.425233 0.243996 -0.654365 -0.558549 -0.134552 -0.027818 -0.038507 -0.108726 -0.337939 -0.587887 -0.057571 -0.774396 -0.659998 -0.001207 0.196962 -0.125670 0.005177 0.454674 -0.296356 0.137385 0.412680 -0.410709 0.063486 0.537158 -0.421074 -0.136200 0.396955 -0.374685 0.022134 0.399530 -0.630322 0.098057 0.588077 -0.536280 0.154157 0.470011 -0.205482 0.373425 0.522437 -0.279406 0.217275 0.600890 -0.518253
-0.101563 0.886469 0.000008 0.000000 0.000000 0.000000 0.134420 0.028730 0.038679 0.304524 -0.234980 -0.429046 0.247940 -0.653335 -0.582195 -0.134429 -0.028673 -0.038681 -0.106230 -0.334168 -0.587870 -0.056110 -0.775033 -0.679647 0.000472 0.195324 -0.126022 0.008596 0.449900 -0.298995 0.140704 0.404710 -0.412709 0.067000 0.529505 -0.425980 -0.134951 0.391038 -0.374546 0.017689 0.386156 -0.632162 0.103818 0.566447 -0.558470 0.159001 0.464726 -0.209658 0.377847 0.513835 -0.292702 0.224285 0.585413 -0.538289
-0.104181 0.880907 0.000007 0.000000 0.000000 0.000000 0.134085 0.029837 0.038799 0.305251 -0.232728 -0.434704 0.252413 -0.654183 -0.609464 -0.134094 -0.029780 -0.038799 -0.103618 -0.329789 -0.587067 -0.053842 -0.776331 -0.702239 0.001965 0.193559 -0.126956 0.011540 0.444439 -0.303624 0.143253 0.395847 -0.416585 0.070046 0.521019 -0.432749 -0.133565 0.384136 -0.375931 0.015874 0.369305 -0.636003 0.110681 0.538633 -0.580653 0.163306 0.459087 -0.216384 0.383729 0.502100 -0.310158 0.234823 0.564421 -0.563837
-0.107166 0.875945 0.000005 0.000000 0.000000 0.000000 0.133352 0.030772 0.038851 0.305719 -0.231395 -0.441838 0.257634 -0.656173 -0.641748 -0.133361 -0.030714 -0.038846 -0.101770 -0.325148 -0.585442 -0.050526 -0.777812 -0.730393 0.003083 0.191497 -0.129192 0.013600 0.438163 -0.311389 0.145032 0.385631 -0.423287 0.072712 0.511405 -0.442138 -0.131982 0.376002 -0.380205 0.018157 0.348192 -0.640642 0.118901 0.505176 -0.602374 0.166545 0.452823 -0.226140 0.390280 0.486306 -0.329474 0.247422 0.538130 -0.591115
-0.110349 0.871094 0.000003 0.000000 0.000000 0.000000 0.132510 0.031240 0.038624 0.305836 -0.230275 -0.448358 0.263252 -0.658650 -0.678410 -0.132519 -0.031181 -0.038616 -0.100990 -0.320240 -0.582582 -0.047030 -0.778225 -0.765228 0.004124 0.188701 -0.133174 0.015376 0.430411 -0.321922 0.146716 0.373471 -0.432505 0.075780 0.499741 -0.453414 -0.129934 0.366080 -0.387322 0.023413 0.321818 -0.646080 0.129177 0.466777 -0.625000 0.169304 0.445189 -0.238275 0.397744 0.464347 -0.349287 0.261532 0.506036 -0.616157
-0.113669 0.866309 0.000002 0.000000 0.000000 0.000000 0.132037 0.031501 0.038179 0.306023 -0.228641 -0.451889 0.268822 -0.660691 -0.711098 -0.132046 -0.031443 -0.038170 -0.100506 -0.314953 -0.579269 -0.044375 -0.776770 -0.800227 0.005413 0.184881 -0.137657 0.018233 0.420360 -0.332209 0.149208 0.358603 -0.441975 0.080119 0.484870 -0.464043 -0.126851 0.353913 -0.394518 0.029759 0.290884 -0.650472 0.141586 0.424542 -0.645059 0.173121 0.435452 -0.249768 0.406927 0.435091 -0.366205 0.277819 0.467586 -0.634339
-0.116951 0.861880 0.000003 0.000000 0.000000 0.000000 0.132037 0.031940 0.037956 0.306803 -0.226699 -0.452393 0.274160 -0.661712 -0.732415 -0.132046 -0.031882 -0.037948 -0.099502 -0.310118 -0.576652 -0.042218 -0.774377 -0.827740 0.006954 0.180348 -0.141137 0.022951 0.408174 -0.340168 0.152551 0.340828 -0.450125 0.085761 0.466818 -0.472610 -0.122527 0.339736 -0.399837 0.035432 0.257226 -0.651566 0.154950 0.378302 -0.660213 0.179020 0.423792 -0.258016 0.417493 0.399786 -0.375140 0.296285 0.423045 -0.642658
-0.119904 0.857845 0.000003 0.000000 0.000000 0.000000 0.132254 0.032617 0.038325 0.308723 -0.225457 -0.451705 0.279561 -0.662274 -0.742641 -0.132264 -0.032560 -0.038318 -0.097543 -0.306892 -0.575290 -0.039211 -0.772573 -0.845938 0.008728 0.175281 -0.143868 0.029180 0.394515 -0.347257 0.156115 0.320745 -0.458272 0.092074 0.446530 -0.480782 -0.117365 0.324162 -0.405012 0.039211 0.221456 -0.649642 0.168686 0.326517 -0.671820 0.186728 0.410646 -0.264200 0.427171 0.360055 -0.375348 0.315334 0.372666 -0.643094
-0.122561 0.854431 0.000003 0.000000 0.000000 0.000000 0.132447 0.033394 0.038924 0.311718 -0.225376 -0.451281 0.284684 -0.662429 -0.746515 -0.132457 -0.033336 -0.038917 -0.094332 -0.304967 -0.575192 -0.034794 -0.771908 -0.859078 0.010972 0.169710 -0.146188 0.036431 0.380093 -0.353769 0.159387 0.299460 -0.465985 0.098575 0.425227 -0.488080 -0.111683 0.308143 -0.410129 0.040216 0.183859 -0.645088 0.183047 0.269334 -0.678390 0.195393 0.396518 -0.269485 0.433010 0.317704 -0.368143 0.333091 0.317622 -0.637757
-0.125315 0.851815 0.000002 0.000000 0.000000 0.000000 0.132728 0.034109 0.039188 0.315404 -0.225584 -0.451444 0.288765 -0.660840 -0.749625 -0.132738 -0.034050 -0.039178 -0.090175 -0.302121 -0.576076 -0.029818 -0.770496 -0.873419 0.013987 0.163936 -0.147272 0.044871 0.365461 -0.356782 0.162549 0.277875 -0.469305 0.105482 0.403755 -0.490335 -0.105381 0.292132 -0.411594 0.037844 0.144916 -0.636580 0.197371 0.206604 -0.675759 0.204796 0.382046 -0.271870 0.433921 0.275206 -0.354628 0.349392 0.259517 -0.625950
-0.128460 0.849772 -0.000001 0.000000 0.000000 0.000000 0.133671 0.034720 0.038933 0.319947 -0.225371 -0.452254 0.291359 -0.657834 -0.752167 -0.133681 -0.034660 -0.038918 -0.086460 -0.297318 -0.577765 -0.026059 -0.766457 -0.889146 0.017313 0.158087 -0.146557 0.053717 0.350461 -0.354919 0.165235 0.256414 -0.466759 0.112373 0.382250 -0.486504 -0.099564 0.275777 -0.407836 0.030607 0.104140 -0.623721 0.208512 0.137043 -0.662472 0.214343 0.367517 -0.270459 0.430521 0.235209 -0.337592 0.364573 0.199661 -0.607096
-0.131528 0.848448 -0.000004 0.000000 0.000000 0.000000 0.135519 0.035446 0.038317 0.325406 -0.224997 -0.453405 0.293545 -0.655455 -0.751398 -0.135530 -0.035385 -0.038295 -0.083709 -0.292212 -0.580161 -0.023938 -0.761060 -0.902680 0.019952 0.151895 -0.144862 0.061279 0.334732 -0.350419 0.166510 0.235574 -0.461454 0.118213 0.361027 -0.480148 -0.095653 0.258750 -0.401281 0.018322 0.061195 -0.606331 0.213836 0.061465 -0.641334 0.222479 0.352593 -0.267407 0.423399 0.198964 -0.319723 0.378566 0.139046 -0.581601
-0.133911 0.848104 -0.000009 0.000000 0.000000 0.000000 0.137535 0.036253 0.037894 0.331270 -0.224619 -0.453632 0.297011 -0.653916 -0.745741 -0.137545 -0.036190 -0.037863 -0.080303 -0.288548 -0.582564 -0.021871 -0.755883 -0.911025 0.022032 0.145462 -0.143082 0.067641 0.318649 -0.345469 0.167065 0.216094 -0.456072 0.123170 0.340859 -0.474321 -0.092655 0.241415 -0.394334 0.004710 0.017595 -0.582556 0.214584 -0.017740 -0.615438 0.228900 0.336855 -0.264229 0.414688 0.165576 -0.300390 0.392168 0.077720 -0.549963
-0.135221 0.848675 -0.000014 0.000000 0.000000 0.000000 0.138855 0.036733 0.038046 0.337085 -0.223836 -0.452220 0.301955 -0.652163 -0.734733 -0.138865 -0.036668 -0.038005 -0.075490 -0.286844 -0.583672 -0.019572 -0.750988 -0.912804 0.023992 0.139592 -0.140798 0.073087 0.303768 -0.339527 0.167514 0.199228 -0.450191 0.127208 0.323006 -0.468945 -0.089703 0.225365 -0.386969 -0.006488 -0.022553 -0.552449 0.211874 -0.094249 -0.584032 0.233782 0.321442 -0.259913 0.405943 0.134613 -0.279278 0.403284 0.016916 -0.514601
